# xmcd CD database file
#
# Track frame offsets:
#	150
#	25147
#	65110
#	85605
#	107035
#	137200
#	178925
#	208262
#	230482
#
# Disc length: 3349 seconds
#
# Revision: 0
# Processed by: cddbd v1.5.2PL0 Copyright (c) Steve Scherf et al.
# Submitted via: CDex 1.51
#
DISCID=810d1309
DTITLE=Lisle Atkinson - Bass Contra Bass
DYEAR=1998
DGENRE=Jazz
TTITLE0=Sweet And Lovely (Take-1)
TTITLE1=Tranquility (take-1)
TTITLE2=Hit It (take-7)
TTITLE3=Samba De Amor (take-1)
TTITLE4=Lush Life (take-1)
TTITLE5=Karen (take-1)
TTITLE6=C'Mon Baby (take-2)
TTITLE7=C'Mon Baby (take-1)
TTITLE8=Hit It (take-9)
EXTD=YEAR: 1998
EXTT0=
EXTT1=
EXTT2=
EXTT3=
EXTT4=
EXTT5=
EXTT6=
EXTT7=
EXTT8=
PLAYORDER=
